<svg id="Capa_1" enable-background="new 0 0 512 512" height="512" viewBox="0 0 512 512" width="512" xmlns="http://www.w3.org/2000/svg"><g><path d="m327.435 264.188-79.623-79.623c-2.93-2.93-6.947-4.497-11.082-4.386-4.142.131-8.044 1.97-10.782 5.079l-222.206 252.35c-5.23 5.94-4.945 14.923.651 20.52l49.479 49.479c2.919 2.92 6.76 4.394 10.609 4.394 3.53 0 7.068-1.24 9.91-3.742l252.351-222.206c3.109-2.738 4.948-6.641 5.079-10.782.132-4.143-1.456-8.154-4.386-11.083z" fill="#ece6f2"/><path d="m331.821 275.27c.132-4.142-1.456-8.152-4.386-11.082l-39.812-39.812-258.49 258.491 24.739 24.739c2.919 2.92 6.76 4.394 10.609 4.394 3.53 0 7.068-1.24 9.91-3.742l252.351-222.206c3.11-2.739 4.948-6.641 5.079-10.782z" fill="#cfcfe6"/><path d="m472.694 39.306c-25.346-25.347-59.047-39.306-94.892-39.306s-69.546 13.959-94.892 39.306l-40.888 40.888c-52.324 52.323-52.324 137.461 0 189.784 26.162 26.162 60.527 39.243 94.893 39.243 34.364 0 68.729-13.081 94.892-39.243l40.888-40.888c25.346-25.346 39.305-59.046 39.305-94.892s-13.959-69.546-39.306-94.892z" fill="#3a5d7e"/><path d="m336.915 309.221c34.364 0 68.729-13.081 94.892-39.243l40.888-40.888c25.346-25.346 39.305-59.046 39.305-94.892s-13.959-69.546-39.306-94.893l-230.672 230.673c26.163 26.162 60.528 39.243 94.893 39.243z" fill="#293f65"/><g><g><g><g><path d="m298.151 163.655c6.132 6.132 17.405 6.609 23.46-.012 6.074-6.643 6.585-16.887.012-23.46-6.132-6.132-17.405-6.609-23.46.012-6.074 6.644-6.584 16.888-.012 23.46z" fill="#293f65"/></g></g></g><g><g><g><path d="m348.583 213.61c6.132 6.132 17.405 6.609 23.46-.012 6.074-6.643 6.585-16.887.012-23.46-6.132-6.132-17.405-6.609-23.46.012-6.073 6.644-6.584 16.888-.012 23.46z" fill="#152133"/></g></g></g></g><g><g><g><path d="m376.614 135.386c6.132 6.132 17.405 6.609 23.46-.012 6.074-6.643 6.585-16.887.012-23.46-6.132-6.132-17.405-6.609-23.46.012-6.074 6.643-6.584 16.887-.012 23.46z" fill="#293f65"/></g></g></g><path d="m400.074 135.374c6.074-6.643 6.584-16.887.012-23.459l-23.471 23.471c6.132 6.132 17.404 6.609 23.459-.012z" fill="#152133"/><path d="m297.032 380.28-165.312-165.312c-5.857-5.857-15.355-5.857-21.213 0l-90.392 90.392c-5.858 5.857-5.858 15.355 0 21.213l165.313 165.313c2.929 2.929 6.768 4.394 10.606 4.394s7.678-1.465 10.606-4.394l90.392-90.392c5.859-5.858 5.859-15.356 0-21.214z" fill="#dd4e4e"/><path d="m185.428 491.885c2.929 2.929 6.768 4.394 10.606 4.394s7.678-1.465 10.606-4.394l90.392-90.392c5.858-5.857 5.858-15.355 0-21.213l-82.656-82.656-111.605 111.605z" fill="#c21456"/></g></svg>